<?xml version="1.0" encoding="UTF-8" standalone="no"?>
<svg
   version="1.1"
   width="375"
   height="375"
   viewBox="0 0 375 375"
   id="svg50"
   sodipodi:docname="+.svg"
   inkscape:version="1.2.2 (732a01da63, 2022-12-09)"
   xmlns:inkscape="http://www.inkscape.org/namespaces/inkscape"
   xmlns:sodipodi="http://sodipodi.sourceforge.net/DTD/sodipodi-0.dtd"
   xmlns="http://www.w3.org/2000/svg"
   xmlns:svg="http://www.w3.org/2000/svg">
  <sodipodi:namedview
     id="namedview52"
     pagecolor="#505050"
     bordercolor="#ffffff"
     borderopacity="1"
     inkscape:showpageshadow="0"
     inkscape:pageopacity="0"
     inkscape:pagecheckerboard="1"
     inkscape:deskcolor="#505050"
     showgrid="false"
     inkscape:zoom="1.2586667"
     inkscape:cx="209.34851"
     inkscape:cy="217.69067"
     inkscape:window-width="1378"
     inkscape:window-height="877"
     inkscape:window-x="1734"
     inkscape:window-y="148"
     inkscape:window-maximized="1"
     inkscape:current-layer="svg50" />
  <defs
     id="defs20">
    <clipPath
       id="clip_0">
      <path
         transform="matrix(.24,0,0,.24,0,0)"
         d="M0 0H1562.5V1562.5H0Z"
         fill-rule="evenodd"
         id="path2" />
    </clipPath>
    <clipPath
       id="clip_1">
      <path
         transform="matrix(.24,0,0,.24,0,0)"
         d="M0 0H1562.5V1562.5H0Z"
         fill-rule="evenodd"
         id="path5" />
    </clipPath>
    <clipPath
       id="clip_2">
      <path
         transform="matrix(.24,0,0,.24,0,0)"
         d="M0 18.191552H961.21676V979.40829H0Z"
         fill-rule="evenodd"
         id="path8" />
    </clipPath>
    <clipPath
       id="clip_3">
      <path
         transform="matrix(.24,0,0,.24,0,0)"
         d="M0 0H1562.5V1562.5H0Z"
         fill-rule="evenodd"
         id="path11" />
    </clipPath>
    <clipPath
       id="clip_4">
      <path
         transform="matrix(.24,0,0,.24,0,0)"
         d="M601.2832 585.3785H1562.5V1547.8784H601.2832Z"
         fill-rule="evenodd"
         id="path14" />
    </clipPath>
    <clipPath
       id="clip_5">
      <path
         transform="matrix(.24,0,0,.24,0,0)"
         d="M0 0H1562.5V1562.5H0Z"
         fill-rule="evenodd"
         id="path17" />
    </clipPath>
  </defs>
  <g
     clip-path="url(#clip_2)"
     id="g32">
    <path
       transform="matrix(5.7673,0,0,5.7673,-23.0692,-18.70323)"
       d="M24 4C12.95 4 4 12.95 4 24 4 35.05 12.95 44 24 44 35.05 44 44 35.05 44 24 44 12.950001 35.05 4 24 4ZM24 40C15.16 40 8 32.84 8 24 8 15.16 15.16 8 24 8 32.84 8 40 15.16 40 24 40 32.84 32.84 40 24 40Z"
       id="path30" />
  </g>
  <g
     clip-path="url(#clip_3)"
     id="g38"
     transform="translate(-5.0561131,-3.9325325)">
    <g
       aria-label="+"
       id="text36"
       style="font-weight:bold;font-size:291.848px;font-family:CanvaSans;stroke-width:1.15346">
      <path
         d="m 136.26717,106.53846 h 55.15927 v 31.22774 h -55.15927 v 54.86742 H 105.03944 V 137.7662 H 49.880167 V 106.53846 H 105.03944 V 51.087344 h 31.22773 z"
         id="path131" />
    </g>
  </g>
  <g
     clip-path="url(#clip_4)"
     id="g42">
    <path
       transform="matrix(5.775,0,0,5.775,121.20797,117.39083)"
       d="M24 4C12.95 4 4 12.95 4 24 4 35.05 12.95 44 24 44 35.05 44 44 35.05 44 24 44 12.950001 35.05 4 24 4ZM24 40C15.16 40 8 32.84 8 24 8 15.16 15.16 8 24 8 32.84 8 40 15.16 40 24 40 32.84 32.84 40 24 40Z"
       id="path40" />
  </g>
  <g
     clip-path="url(#clip_5)"
     id="g48"
     transform="translate(11.865754,-21.279877)">
    <g
       aria-label="-"
       transform="matrix(1.15346,0,0,1.15346,177.86003,42.29663)"
       id="text46"
       style="font-weight:bold;font-size:253.02px;font-family:CanvaSans">
      <path
         d="m 29.74685,221.62486 v -30.86844 h 66.291241 v 30.86844 z"
         id="path134" />
    </g>
  </g>
</svg>
