<?xml version="1.0" encoding="UTF-8" standalone="no"?>
<svg
   version="1.1"
   width="375"
   height="375"
   viewBox="0 0 375 375"
   id="svg73"
   sodipodi:docname="Copy of +.svg"
   inkscape:version="1.2.2 (732a01da63, 2022-12-09)"
   xmlns:inkscape="http://www.inkscape.org/namespaces/inkscape"
   xmlns:sodipodi="http://sodipodi.sourceforge.net/DTD/sodipodi-0.dtd"
   xmlns="http://www.w3.org/2000/svg"
   xmlns:svg="http://www.w3.org/2000/svg">
  <sodipodi:namedview
     id="namedview75"
     pagecolor="#505050"
     bordercolor="#ffffff"
     borderopacity="1"
     inkscape:showpageshadow="0"
     inkscape:pageopacity="0"
     inkscape:pagecheckerboard="1"
     inkscape:deskcolor="#505050"
     showgrid="false"
     inkscape:zoom="1.2586667"
     inkscape:cx="237.95021"
     inkscape:cy="167.63771"
     inkscape:window-width="1378"
     inkscape:window-height="877"
     inkscape:window-x="1734"
     inkscape:window-y="148"
     inkscape:window-maximized="1"
     inkscape:current-layer="svg73" />
  <defs
     id="defs35">
    <clipPath
       id="clip_0">
      <path
         transform="matrix(.24,0,0,.24,0,0)"
         d="M0 0H1562.5V1562.5H0Z"
         fill-rule="evenodd"
         id="path2" />
    </clipPath>
    <clipPath
       id="clip_1">
      <path
         transform="matrix(.24,0,0,.24,0,0)"
         d="M0 0H1562.5V1562.5H0Z"
         fill-rule="evenodd"
         id="path5" />
    </clipPath>
    <clipPath
       id="clip_2">
      <path
         transform="matrix(.24,0,0,.24,0,0)"
         d="M0 0H1562.5V1562.5H0Z"
         id="path8" />
    </clipPath>
    <clipPath
       id="clip_3">
      <path
         transform="matrix(.24,0,0,.24,0,0)"
         d="M0 0H1562.5V1562.5H0Z"
         id="path11" />
    </clipPath>
    <clipPath
       id="clip_4">
      <path
         transform="matrix(.24,0,0,.24,0,0)"
         d="M-62.898286 570.749 1464.8716 243.14365 1625.3982 991.75088 97.62834 1319.3562-62.898286 570.749Z"
         id="path14" />
    </clipPath>
    <clipPath
       id="clip_5">
      <path
         transform="matrix(.24,0,0,.24,0,0)"
         d="M-62.898286 570.749 1464.8716 243.14365 1625.3982 991.75088 97.62834 1319.3562-62.898286 570.749Z"
         id="path17" />
    </clipPath>
    <clipPath
       id="clip_6">
      <path
         transform="matrix(.24,0,0,.24,0,0)"
         d="M361.14598 280.44297H1129.896V1049.193H361.14598Z"
         fill-rule="evenodd"
         id="path20" />
    </clipPath>
    <clipPath
       id="clip_7">
      <path
         transform="matrix(.24,0,0,.24,0,0)"
         d="M0 0H1562.5V1562.5H0Z"
         id="path23" />
    </clipPath>
    <clipPath
       id="clip_8">
      <path
         transform="matrix(.24,0,0,.24,0,0)"
         d="M0 0H1562.5V1562.5H0Z"
         id="path26" />
    </clipPath>
    <clipPath
       id="clip_9">
      <path
         transform="matrix(.24,0,0,.24,0,0)"
         d="M1221.7383 312.6087 1392.684 352.30769 1348.682 541.7823 1177.7363 502.0833 1221.7383 312.6087Z"
         id="path29" />
    </clipPath>
    <clipPath
       id="clip_10">
      <path
         transform="matrix(.24,0,0,.24,0,0)"
         d="M0 0H1562.5V1562.5H0Z"
         fill-rule="evenodd"
         id="path32" />
    </clipPath>
  </defs>
  <g
     clip-path="url(#clip_2)"
     id="g53">
    <g
       clip-path="url(#clip_3)"
       id="g51">
      <g
         clip-path="url(#clip_4)"
         id="g49">
        <g
           clip-path="url(#clip_5)"
           id="g47">
          <path
             id="path45"
             d="M 347.32293 12.617504 C 317.41202 6.4253229 284.5239 3.0006815 249.99894 3.0006815 C 111.89907 3.0006815 0.00051109462 57.799995 0.00051109462 125.29993 C 0.00051109462 192.79986 111.90121 247.59934 250.00107 247.59934 C 388.10093 247.59934 499.9995 192.90004 499.9995 125.3001 C 499.9995 100.25197 484.56417 76.960901 458.12545 57.561711 L 451.58716 71.471372 C 458.341 76.635079 464.23326 82.003443 468.99909 87.499173 C 479.59907 99.799161 484.99925 112.5009 484.99925 125.30089 C 484.99925 138.10087 479.59984 150.79899 468.99985 163.09898 C 457.89986 175.89898 440.99858 188.10043 420.1986 198.30042 C 398.39865 209.00041 372.8013 217.39969 344.30133 223.29967 C 314.50137 229.49967 282.80026 232.5991 250.00028 232.5991 C 217.20031 232.5991 185.60019 229.50045 155.70023 223.30045 C 127.20026 217.40047 101.59928 208.99954 79.799305 198.29955 C 58.999316 188.09956 42.100911 175.90084 31.000922 163.10085 C 20.400932 150.80086 15.000757 138.09913 15.000757 125.29914 C 15.000757 112.49915 20.40017 99.801033 31.000159 87.501045 C 42.100148 74.701058 59.001431 62.499594 79.80141 52.299604 C 101.6014 41.599615 127.1987 33.200346 155.69868 27.300353 C 185.59864 21.20036 217.29976 18.000928 249.99972 18.000928 C 282.69969 18.000928 314.39981 21.099579 344.29978 27.299573 C 365.32819 31.652823 384.76284 37.375443 402.27217 44.370391 L 408.65309 30.797192 C 390.22816 23.384921 369.60517 17.230393 347.32293 12.617504 z "
             transform="matrix(.73332956,-.15725057,.15725057,.73332956,-15.535891,134.92644)" />
        </g>
      </g>
    </g>
  </g>
  <g
     clip-path="url(#clip_6)"
     id="g57">
    <path
       transform="matrix(.30986173,0,0,.30986173,48.46908,67.30631)"
       d="M718.5 297.6C718.5 302.47047 718.3805 307.33796 718.1415 312.20256 717.90249 317.06715 717.5443 321.9229 717.06698 326.7699 716.58956 331.6169 715.9935 336.44929 715.27896 341.267 714.5642 346.08473 713.73178 350.882 712.7816 355.65885 711.8314 360.4357 710.76467 365.18638 709.58126 369.9109 708.39779 374.63539 707.0991 379.32798 705.68539 383.9887 704.2715 388.64945 702.7442 393.27265 701.1034 397.85838 699.4626 402.44413 697.71029 406.98686 695.84646 411.48658 693.9826 415.9863 692.00949 420.43757 689.9271 424.8404 687.8447 429.2432 685.6556 433.59226 683.3597 437.88764 681.0638 442.18299 678.6639 446.4194 676.16 450.59693 673.65609 454.77445 671.05117 458.88804 668.3453 462.93766 665.6394 466.9873 662.83578 470.9681 659.93447 474.8801 657.03317 478.79209 654.03768 482.63053 650.9479 486.39546 647.8581 490.16035 644.6778 493.84718 641.40707 497.45597 638.1362 501.0647 634.7789 504.59104 631.33499 508.03498 627.89108 511.4789 624.3647 514.83627 620.7559 518.10708 617.14718 521.37789 613.4603 524.5581 609.69546 527.6479 605.9305 530.7376 602.092 533.73318 598.18008 536.63449 594.268 539.53579 590.28726 542.3394 586.2377 545.0453 582.18807 547.75119 578.07449 550.356 573.8969 552.8599 569.71939 555.36386 565.483 557.76376 561.1876 560.0597 556.8923 562.3556 552.54318 564.54476 548.1403 566.62716 543.7374 568.70956 539.2862 570.6826 534.7865 572.54647 530.28677 574.4103 525.744 576.1626 521.1583 577.8034 516.5726 579.4442 511.94935 580.97158 507.2887 582.3854 502.62797 583.79916 497.93534 585.0978 493.21086 586.2812 488.48637 587.4646 483.7357 588.5314 478.95884 589.48159 474.18196 590.43179 469.38468 591.26419 464.56697 591.9788 459.74925 592.6935 454.91688 593.28958 450.0699 593.76699 445.22288 594.2443 440.3671 594.60256 435.50254 594.8415 430.63795 595.0805 425.77046 595.2 420.9 595.2 416.02955 595.2 411.16203 595.0805 406.29747 594.84158 401.43287 594.6026 396.57707 594.2444 391.73008 593.767 386.88307 593.2896 382.0507 592.69357 377.23295 591.9788 372.41523 591.26419 367.61793 590.43179 362.84107 589.48159 358.06419 588.5314 353.3135 587.4646 348.58903 586.2812 343.86454 585.0978 339.17195 583.79916 334.51124 582.3854 329.8505 580.97158 325.22727 579.4442 320.64155 577.8034 316.0558 576.1626 311.51307 574.4103 307.01335 572.54647 302.5136 570.6826 298.06236 568.70956 293.65956 566.62716 289.2567 564.54476 284.90763 562.3556 280.61228 560.05978 276.31697 557.7638 272.0805 555.3639 267.90299 552.8599 263.72547 550.356 259.61189 547.75119 255.56224 545.0453 251.51262 542.3394 247.53182 539.53579 243.61983 536.63449 239.70786 533.73318 235.86943 530.7376 232.10453 527.6479 228.33962 524.5581 224.65277 521.3778 221.044 518.107 217.43526 514.83627 213.90892 511.47889 210.465 508.03495 207.02108 504.59104 203.66371 501.0647 200.39292 497.4559 197.12213 493.84715 193.94185 490.1603 190.85207 486.3954 187.7623 482.63047 184.76674 478.79203 181.86542 474.88008 178.9641 470.9681 176.16049 466.9873 173.45462 462.93766 170.74875 458.88804 168.14386 454.77445 165.63994 450.5969 163.13602 446.4194 160.73612 442.18299 158.4402 437.8876 156.14429 433.59226 153.95514 429.24317 151.87276 424.84034 149.79038 420.4375 147.81726 415.98625 145.95342 411.4865 144.08957 406.9868 142.33725 402.44407 140.69646 397.85835 139.05567 393.2726 137.52835 388.64939 136.11454 383.98866 134.70073 379.3279 133.4021 374.6353 132.21866 369.91084 131.03524 365.18635 129.96845 360.43568 129.01827 355.6588 128.06809 350.88197 127.23569 346.0847 126.52105 341.26698 125.80641 336.44926 125.210399 331.61689 124.73302 326.7699 124.25563 321.9229 123.897449 317.06715 123.658458 312.20256 123.41947 307.33796 123.29998 302.47047 123.29999 297.6 123.29998 292.72956 123.41947 287.86207 123.658458 282.99748 123.897449 278.13288 124.25563 273.2771 124.73302 268.4301 125.210399 263.5831 125.80641 258.75074 126.52105 253.93299 127.23569 249.11525 128.06809 244.31795 129.01827 239.54109 129.96845 234.76424 131.03525 230.01357 132.21868 225.28908 133.4021 220.56459 134.70073 215.87198 136.11455 211.21126 137.52835 206.55054 139.05567 201.9273 140.69646 197.34157 142.33725 192.75583 144.08957 188.2131 145.95342 183.7134 147.81726 179.21369 149.79039 174.76242 151.87277 170.35959 153.95516 165.95676 156.1443 161.60767 158.44022 157.31232 160.73613 153.01699 163.13603 148.78055 165.63996 144.60301 168.14386 140.42549 170.74875 136.31192 173.45462 132.2623 176.16049 128.21266 178.9641 124.231868 181.86542 120.319889 184.76674 116.407909 187.7623 112.569469 190.85207 108.804569 193.94185 105.03966 197.12213 101.35282 200.39293 97.74406 203.66373 94.135288 207.02108 90.60894 210.465 87.165019 213.90892 83.721088 217.43526 80.36372 221.044 77.09293 224.65277 73.82214 228.33962 70.64186 232.10453 67.552089 235.86943 64.4623 239.70786 61.466756 243.61983 58.56543 247.53182 55.664113 251.51262 52.86051 255.56226 50.154638 259.61189 47.44876 263.72547 44.84387 267.90299 42.33996 272.0805 39.83605 276.31697 37.43614 280.6123 35.14023 284.90766 32.844316 289.25675 30.655167 293.65956 28.572783 298.06236 26.490399 302.51365 24.517289 307.01338 22.653449 311.5131 20.789608 316.05583 19.037287 320.64155 17.396485 325.22727 15.755681 329.8505 14.228371 334.51124 12.814554 339.17195 11.400739 343.86454 10.102119 348.58903 8.918697 353.3135 7.7352759 358.06419 6.6684768 362.84107 5.7183 367.61793 4.768123 372.41523 3.9357134 377.23295 3.2210704 382.0507 2.5064274 386.88307 1.9104124 391.73008 1.4330253 396.57707 .955638 401.43287 .59745368 406.29747 .3584722 411.16203 .11949073 416.02955 0 420.9 0 425.77046 0 430.63795 .11949073 435.5025 .3584722 440.3671 .59745368 445.22288 .955638 450.0699 1.4330253 454.91688 1.9104124 459.74925 2.5064274 464.56697 3.2210704 469.38468 3.9357134 474.18196 4.768123 478.95884 5.7183 483.7357 6.6684768 488.48637 7.7352759 493.21086 8.918697 497.93534 10.102119 502.62797 11.400739 507.28874 12.814554 511.9494 14.228371 516.5726 15.755681 521.1583 17.396485 525.7441 19.037287 530.28689 20.789608 534.78659 22.653449 539.28628 24.517289 543.73757 26.490399 548.14047 28.572783 552.5433 30.655167 556.8924 32.844316 561.18777 35.14023 565.48306 37.43614 569.7194 39.83605 573.897 42.33996 578.0745 44.84387 582.18807 47.44876 586.2377 50.154638 590.28726 52.86051 594.268 55.664113 598.18008 58.56543 602.092 61.466756 605.9305 64.4623 609.69546 67.552089 613.4603 70.64186 617.14718 73.82214 620.7559 77.09293 624.3647 80.36372 627.89108 83.721088 631.33499 87.165019 634.7789 90.60894 638.1362 94.135288 641.40707 97.74406 644.6778 101.35281 647.8581 105.03965 650.9479 108.80456 654.03768 112.56946 657.0332 116.4079 659.9345 120.319889 662.8358 124.23186 665.6394 128.21266 668.3453 132.26229 671.05117 136.31192 673.65609 140.42549 676.16 144.603 678.6639 148.78054 681.0638 153.01697 683.3597 157.31232 685.6556 161.60765 687.8447 165.95674 689.9271 170.35959 692.00949 174.7624 693.9826 179.21367 695.84646 183.71338 697.71029 188.21309 699.4626 192.75582 701.1034 197.34156 702.7442 201.92729 704.27157 206.55052 705.6854 211.21126 707.0992 215.87198 708.3978 220.56459 709.5813 225.28908 710.7647 230.01357 711.8315 234.76424 712.7817 239.54109 713.7318 244.31795 714.5643 249.11525 715.27896 253.93299 715.9935 258.75074 716.58956 263.5831 717.067 268.4301 717.5444 273.2771 717.9025 278.13288 718.1415 282.99748 718.3805 287.86207 718.5 292.72956 718.5 297.6Z"
       id="path55" />
  </g>
  <g
     clip-path="url(#clip_7)"
     id="g65">
    <g
       clip-path="url(#clip_8)"
       id="g63">
      <g
         clip-path="url(#clip_9)"
         id="g61" />
    </g>
  </g>
  <g
     clip-path="url(#clip_10)"
     id="g71"
     transform="translate(2.3834746,-0.39724577)">
    <text
       xml:space="preserve"
       transform="matrix(3.0327309,0,0,3.0327309,267.5806,-16.174553)"
       font-size="53.33px"
       font-family="CanvaSans"
       font-weight="bold"
       id="text69"><tspan
         y="57"
         x="0"
         id="tspan67">?</tspan></text>
  </g>
</svg>
